<svg width="24" height="25" viewBox="0 0 40 39" fill="none" xmlns="http://www.w3.org/2000/svg">
    <path d="M11.5975 24.9425L9.59754 22.9425L3.39754 24.9225H3.19754C3.10014 24.928 3.00268 24.913 2.91141 24.8785C2.82014 24.8441 2.73707 24.791 2.66754 24.7225L1.21754 23.2925C1.10041 23.1811 1.02546 23.0326 1.00541 22.8722C0.985355 22.7118 1.02144 22.5494 1.10754 22.4125L2.79754 19.5025C3.84431 17.7111 5.30466 16.1963 7.05653 15.0846C8.80841 13.973 10.8009 13.2968 12.8675 13.1125L15.3575 12.8925M15.3575 12.8925C16.8042 11.1725 18.1375 9.6992 19.3575 8.47254C21.6724 6.02058 24.4355 4.03479 27.4975 2.62254C30.6184 1.45516 33.9371 0.908269 37.2675 1.01254C37.4688 1.01533 37.6616 1.09388 37.8075 1.23254C37.8768 1.29614 37.9321 1.37341 37.97 1.45948C38.0078 1.54554 38.0274 1.63851 38.0275 1.73254C38.095 5.07281 37.5002 8.39336 36.2775 11.5025C34.9015 14.5735 32.9379 17.3455 30.4975 19.6625C29.2675 20.9025 27.7875 22.2325 26.0775 23.6625L25.8575 26.1425C25.6781 28.2081 25.0072 30.2008 23.9008 31.9543C22.7944 33.7079 21.2847 35.1713 19.4975 36.2225L16.6075 37.9125C16.4933 37.9719 16.3663 38.0028 16.2375 38.0025C16.0462 37.9986 15.8622 37.9278 15.7175 37.8025L14.2675 36.3425C14.1739 36.253 14.1074 36.139 14.0756 36.0134C14.0437 35.8878 14.0479 35.7558 14.0875 35.6325L16.0175 29.3625M15.3575 12.8925L9.64754 22.9925M16.0175 29.3625L14.0775 27.4225M16.0175 29.3625L26.1175 23.6625M32.9175 10.2025C32.9202 9.11688 32.4922 8.07448 31.7273 7.30399C30.9624 6.5335 29.9232 6.09783 28.8375 6.09254C28.2814 6.06508 27.7255 6.15091 27.2036 6.34481C26.6816 6.53872 26.2045 6.83665 25.8012 7.22054C25.3979 7.60442 25.0768 8.06625 24.8574 8.578C24.638 9.08975 24.5249 9.64074 24.5249 10.1975C24.5249 10.7543 24.638 11.3053 24.8574 11.8171C25.0768 12.3288 25.3979 12.7907 25.8012 13.1745C26.2045 13.5584 26.6816 13.8564 27.2036 14.0503C27.7255 14.2442 28.2814 14.33 28.8375 14.3025C29.9153 14.303 30.95 13.8791 31.7175 13.1225C32.1034 12.7418 32.4078 12.2867 32.6124 11.7847C32.817 11.2828 32.9174 10.7445 32.9075 10.2025H32.9175Z" stroke="#AEAEAE" stroke-width="2" stroke-linecap="round" stroke-linejoin="round"/>
    <path d="M8.49756 30.5025C12.4976 29.7625 19.5976 23.1025 20.4276 18.5725C15.8676 19.4425 9.20756 26.5025 8.49756 30.5025Z" stroke="#AEAEAE" stroke-width="2" stroke-linecap="round" stroke-linejoin="round"/>
</svg>
