<svg width="24" height="25" viewBox="0 0 24 18" fill="none" xmlns="http://www.w3.org/2000/svg">
    <path d="M12.809 3.13151C12.8538 2.54955 13.0589 1.98843 13.4041 1.50293C13.7493 1.01742 14.2229 0.624119 14.7787 0.361409C15.3345 0.0986997 15.9535 -0.0244383 16.5752 0.00401562C17.1969 0.0324696 17.8001 0.211543 18.326 0.523756C18.3861 0.560628 18.4345 0.611999 18.4662 0.67247C18.4978 0.73294 18.5114 0.800279 18.5057 0.867411C18.5 0.934542 18.4751 0.998988 18.4336 1.05398C18.3921 1.10897 18.3356 1.15247 18.27 1.17991C17.3559 1.56542 16.5799 2.19011 16.0353 2.97893C15.4908 3.76776 15.2007 4.68718 15.2 5.62677C15.2 5.73645 15.2 5.84612 15.212 5.95391C15.2175 6.02205 15.2031 6.0903 15.1702 6.15129C15.1373 6.21229 15.0873 6.2637 15.0255 6.29999C14.9638 6.33627 14.8926 6.35605 14.8197 6.35717C14.7468 6.35829 14.675 6.34072 14.612 6.30636C14.0227 5.99038 13.5407 5.52463 13.2216 4.96286C12.9026 4.4011 12.7596 3.76622 12.809 3.13151ZM24 12.8079C24.0014 13.2364 23.8748 13.6567 23.6344 14.0212C23.394 14.3857 23.0495 14.6798 22.64 14.8701L22.596 14.8889L18.713 16.4393C18.6746 16.4551 18.6348 16.4677 18.594 16.4768L12.194 17.9766C12.1306 17.9919 12.0654 17.9997 12 18H1.6C1.17565 18 0.768687 17.842 0.468629 17.5607C0.168571 17.2795 0 16.898 0 16.5002V12.7508C0 12.353 0.168571 11.9715 0.468629 11.6902C0.768687 11.409 1.17565 11.251 1.6 11.251H4.469L6.731 9.12971C7.0276 8.85044 7.38031 8.62903 7.76873 8.47827C8.15715 8.32752 8.5736 8.25041 8.994 8.2514H14C14.4226 8.25135 14.8397 8.34097 15.22 8.51352C15.6004 8.68607 15.9342 8.93709 16.1963 9.24775C16.4585 9.55842 16.6422 9.92067 16.7338 10.3074C16.8253 10.6941 16.8223 11.0952 16.725 11.4806L20.909 10.5789C21.2732 10.4885 21.6548 10.4777 22.0242 10.5473C22.3936 10.6169 22.741 10.7651 23.0396 10.9805C23.3383 11.1958 23.5802 11.4726 23.7467 11.7895C23.9132 12.1063 23.9998 12.4547 24 12.8079ZM22.4 12.8079C22.3999 12.6839 22.3693 12.5616 22.3106 12.4505C22.2519 12.3394 22.1666 12.2425 22.0615 12.1672C21.9564 12.092 21.8342 12.0405 21.7044 12.0166C21.5745 11.9928 21.4406 11.9974 21.313 12.0299L21.282 12.0374L14.582 13.4819C14.5232 13.4942 14.4632 13.5005 14.403 13.5006H11.2C10.9878 13.5006 10.7843 13.4216 10.6343 13.281C10.4843 13.1404 10.4 12.9496 10.4 12.7508C10.4 12.5519 10.4843 12.3611 10.6343 12.2205C10.7843 12.0799 10.9878 12.0009 11.2 12.0009H14C14.3183 12.0009 14.6235 11.8823 14.8485 11.6714C15.0736 11.4605 15.2 11.1743 15.2 10.876C15.2 10.5777 15.0736 10.2916 14.8485 10.0806C14.6235 9.86969 14.3183 9.75118 14 9.75118H8.994C8.7838 9.75055 8.57557 9.78909 8.38141 9.86457C8.18725 9.94004 8.01103 10.0509 7.863 10.1908L5.6 12.3111V16.5002H11.9L18.143 15.037L21.943 13.5203C22.0813 13.452 22.197 13.3495 22.2776 13.2239C22.3581 13.0983 22.4005 12.9545 22.4 12.8079ZM16.8 5.62677C16.8 6.29419 17.0111 6.94662 17.4067 7.50155C17.8023 8.05649 18.3645 8.48901 19.0223 8.74442C19.6801 8.99983 20.404 9.06666 21.1023 8.93645C21.8006 8.80624 22.4421 8.48485 22.9456 8.01292C23.449 7.54098 23.7919 6.9397 23.9308 6.28511C24.0697 5.63052 23.9984 4.95201 23.726 4.3354C23.4535 3.71879 22.9921 3.19176 22.4 2.82097C21.808 2.45017 21.112 2.25226 20.4 2.25226C19.4452 2.25226 18.5295 2.60779 17.8544 3.24063C17.1793 3.87348 16.8 4.7318 16.8 5.62677Z" fill="#BFBFBF"/>
</svg>
