<svg width="16" height="16" viewBox="0 0 16 16" fill="none" xmlns="http://www.w3.org/2000/svg">
    <path d="M3.53 7.2387L4.94 7.7087C5.872 8.0187 6.337 8.1747 6.671 8.5087C7.005 8.8427 7.161 9.3087 7.471 10.2387L7.941 11.6487C8.725 14.0027 9.117 15.1787 9.838 15.1787C10.558 15.1787 10.951 14.0027 11.735 11.6487L14.573 3.1367C15.125 1.4807 15.401 0.652697 14.964 0.215697C14.527 -0.221303 13.699 0.054697 12.044 0.605697L3.529 3.4457C1.178 4.2287 0 4.6207 0 5.3417C0 6.0617 1.177 6.4547 3.53 7.2387Z" fill="#5631DF"/>
    <path d="M5.36672 9.18363L3.30472 8.49663C3.16043 8.44854 3.00707 8.43398 2.85631 8.45408C2.70555 8.47419 2.56136 8.52841 2.43472 8.61263L1.34472 9.33863C1.21569 9.4246 1.11442 9.54621 1.05322 9.68867C0.992032 9.83113 0.973555 9.9883 1.00004 10.1411C1.02653 10.2938 1.09683 10.4356 1.20241 10.5492C1.30798 10.6627 1.44428 10.7431 1.59472 10.7806L3.54972 11.2686C3.63769 11.2906 3.71804 11.3361 3.78216 11.4002C3.84628 11.4643 3.89175 11.5447 3.91372 11.6326L4.40172 13.5876C4.43923 13.7381 4.51965 13.8744 4.6332 13.9799C4.74674 14.0855 4.88852 14.1558 5.04129 14.1823C5.19405 14.2088 5.35123 14.1903 5.49368 14.1291C5.63614 14.0679 5.75775 13.9667 5.84372 13.8376L6.56972 12.7476C6.65394 12.621 6.70816 12.4768 6.72827 12.326C6.74837 12.1753 6.73382 12.0219 6.68572 11.8776L5.99872 9.81563C5.94961 9.66849 5.86694 9.53479 5.75725 9.4251C5.64756 9.31541 5.51386 9.23274 5.36672 9.18363Z" fill="white"/>
</svg>
