<svg width="24" height="24" viewBox="0 0 20 20" fill="none" xmlns="http://www.w3.org/2000/svg">
    <path d="M6 9C6.28333 9 6.521 8.904 6.713 8.712C6.905 8.52 7.00067 8.28267 7 8C6.99933 7.71733 6.90333 7.48 6.712 7.288C6.52067 7.096 6.28333 7 6 7C5.71667 7 5.47933 7.096 5.288 7.288C5.09667 7.48 5.00067 7.71733 5 8C4.99933 8.28267 5.09533 8.52033 5.288 8.713C5.48067 8.90567 5.718 9.00133 6 9ZM10 9C10.2833 9 10.521 8.904 10.713 8.712C10.905 8.52 11.0007 8.28267 11 8C10.9993 7.71733 10.9033 7.48 10.712 7.288C10.5207 7.096 10.2833 7 10 7C9.71667 7 9.47933 7.096 9.288 7.288C9.09667 7.48 9.00067 7.71733 9 8C8.99933 8.28267 9.09533 8.52033 9.288 8.713C9.48067 8.90567 9.718 9.00133 10 9ZM14 9C14.2833 9 14.521 8.904 14.713 8.712C14.905 8.52 15.0007 8.28267 15 8C14.9993 7.71733 14.9033 7.48 14.712 7.288C14.5207 7.096 14.2833 7 14 7C13.7167 7 13.4793 7.096 13.288 7.288C13.0967 7.48 13.0007 7.71733 13 8C12.9993 8.28267 13.0953 8.52033 13.288 8.713C13.4807 8.90567 13.718 9.00133 14 9ZM0 20V2C0 1.45 0.196 0.979333 0.588 0.588C0.98 0.196667 1.45067 0.000666667 2 0H18C18.55 0 19.021 0.196 19.413 0.588C19.805 0.98 20.0007 1.45067 20 2V14C20 14.55 19.8043 15.021 19.413 15.413C19.0217 15.805 18.5507 16.0007 18 16H4L0 20Z" fill="#BFBFBF"/>
</svg>
