<svg width="27" height="26" viewBox="0 0 27 26" fill="none" xmlns="http://www.w3.org/2000/svg">
<g clip-path="url(#clip0_55_1231)">
<path d="M27 13C27 5.82034 20.9558 0 13.5 0C6.0442 0 0 5.82034 0 13C0 19.4886 4.93678 24.8669 11.3906 25.8421V16.7578H7.96289V13H11.3906V10.1359C11.3906 6.87781 13.4061 5.07812 16.4898 5.07812C17.9668 5.07812 19.5117 5.33203 19.5117 5.33203V8.53125H17.8095C16.1324 8.53125 15.6094 9.53337 15.6094 10.5615V13H19.3535L18.755 16.7578H15.6094V25.8421C22.0632 24.8669 27 19.4887 27 13Z" fill="#1877F2"/>
<path d="M18.755 16.7578L19.3535 13H15.6094V10.5615C15.6094 9.53327 16.1324 8.53125 17.8095 8.53125H19.5117V5.33203C19.5117 5.33203 17.9668 5.07812 16.4897 5.07812C13.4061 5.07812 11.3906 6.87781 11.3906 10.1359V13H7.96289V16.7578H11.3906V25.8421C12.0884 25.9474 12.7937 26.0002 13.5 26C14.2063 26.0002 14.9116 25.9474 15.6094 25.8421V16.7578H18.755Z" fill="white"/>
</g>
<defs>
<clipPath id="clip0_55_1231">
<rect width="27" height="26" fill="white"/>
</clipPath>
</defs>
</svg>
