<svg width="17" height="12" viewBox="0 0 17 12" fill="none" xmlns="http://www.w3.org/2000/svg">
<g clip-path="url(#clip0_50_383)">
<path d="M3.86365 11.9409V5.79106L1.82664 4.04621L0 3.07794V10.8556C0 11.4561 0.519629 11.9409 1.15912 11.9409H3.86365Z" fill="#4285F4"/>
<path d="M13.1364 11.9409H15.8409C16.4823 11.9409 17 11.4543 17 10.8556V3.078L14.931 4.18704L13.1364 5.79106V11.9409Z" fill="#34A853"/>
<path d="M3.86364 5.79107L3.58646 3.38815L3.86364 1.08832L8.49999 4.34411L13.1363 1.08832L13.4464 3.26399L13.1363 5.79107L8.49999 9.04687L3.86364 5.79107Z" fill="#EA4335"/>
<path d="M13.1364 1.08837V5.79113L17 3.07801V1.63098C17 0.288912 15.3638 -0.476165 14.2182 0.328705L13.1364 1.08837Z" fill="#FBBC04"/>
<path d="M0 3.07798L1.77696 4.32585L3.86365 5.7911V1.08834L2.78176 0.328672C1.63426 -0.47626 0 0.28888 0 1.63089V3.07798Z" fill="#C5221F"/>
</g>
<defs>
<clipPath id="clip0_50_383">
<rect width="17" height="12" fill="white"/>
</clipPath>
</defs>
</svg>
