<svg width="55" height="53" viewBox="0 0 55 53" fill="none" xmlns="http://www.w3.org/2000/svg">
<g clip-path="url(#clip0_180_2)">
<path d="M27.5 53C42.6878 53 55 41.1355 55 26.5C55 11.8645 42.6878 0 27.5 0C12.3122 0 0 11.8645 0 26.5C0 41.1355 12.3122 53 27.5 53Z" fill="#FF4500"/>
<path d="M45.7939 26.7525C45.7939 24.6044 43.9912 22.8982 41.7942 22.8982C40.7564 22.8969 39.7581 23.2817 39.0077 23.9725C36.2538 22.0767 32.4833 20.8449 28.287 20.6869L30.1226 12.4096L36.0895 13.6414C36.1554 15.0948 37.4009 16.2639 38.9421 16.2639C40.5157 16.2639 41.7942 15.0321 41.7942 13.5149C41.7942 11.9986 40.5159 10.7666 38.9421 10.7666C37.8275 10.7666 36.8436 11.3985 36.3846 12.3148L29.7297 10.9562C29.5329 10.9244 29.3361 10.9562 29.2048 11.0511C29.0409 11.1459 28.9427 11.3036 28.9102 11.4933L26.877 20.7182C22.6151 20.8449 18.7791 22.0767 15.9925 24.0042C15.242 23.3134 14.2437 22.9286 13.2058 22.9301C10.9764 22.9301 9.20605 24.6673 9.20605 26.7844C9.20605 28.3638 10.1894 29.6905 11.5668 30.2913C11.4999 30.6776 11.467 31.0686 11.4684 31.4602C11.4684 37.3991 18.6484 42.2333 27.5002 42.2333C36.3522 42.2333 43.5323 37.431 43.5323 31.4602C43.532 31.0687 43.4991 30.6778 43.4339 30.2913C44.8106 29.6905 45.7939 28.332 45.7939 26.7525ZM18.3202 29.5009C18.3202 27.9846 19.5985 26.7525 21.1729 26.7525C22.7464 26.7525 24.0249 27.9844 24.0249 29.5009C24.0249 31.0174 22.7466 32.2498 21.1729 32.2498C19.5987 32.2809 18.3202 31.0174 18.3202 29.5009ZM34.2867 36.7989C32.3196 38.6947 28.582 38.8212 27.5002 38.8212C26.3856 38.8212 22.6482 38.6628 20.7133 36.7989C20.4188 36.5147 20.4188 36.0722 20.7133 35.788C21.0085 35.5041 21.4674 35.5041 21.7626 35.788C23.0087 36.9888 25.6315 37.3991 27.5002 37.3991C29.3691 37.3991 32.0244 36.9886 33.2374 35.788C33.5326 35.5041 33.9915 35.5041 34.2867 35.788C34.5488 36.0722 34.5488 36.5147 34.2867 36.7989ZM33.7618 32.2811C32.1881 32.2811 30.9098 31.0492 30.9098 29.5327C30.9098 28.0162 32.1881 26.7844 33.7618 26.7844C35.336 26.7844 36.6143 28.0162 36.6143 29.5327C36.6143 31.0172 35.336 32.2811 33.7618 32.2811Z" fill="white"/>
</g>
<defs>
<clipPath id="clip0_180_2">
<rect width="55" height="53" fill="white"/>
</clipPath>
</defs>
</svg>
