<svg width="23" height="26" viewBox="0 0 23 26" fill="none" xmlns="http://www.w3.org/2000/svg">
<path d="M11.5 1C10.1211 1 8.75574 1.2585 7.48182 1.76074C6.2079 2.26297 5.05039 2.99912 4.07538 3.92713C2.10625 5.80134 1 8.34331 1 10.9938C1 16.2308 6.00431 20.5815 11.5 20.9508V25C16.6724 23.6277 22 17.3262 22 10.9938C22 4.66154 17.319 1 11.5 1Z" stroke="#34A853" stroke-linecap="round" stroke-linejoin="round"/>
<path d="M17.0442 13.1526C16.3665 13.0729 15.6936 12.9599 15.0282 12.8141C14.8657 12.7626 14.6919 12.7518 14.5237 12.7828C14.3555 12.8139 14.1986 12.8857 14.0681 12.9914C13.6807 13.3599 13.2913 13.7265 12.8998 14.0911C11.0766 13.2379 9.60223 11.8333 8.70753 10.0972C9.20344 9.61291 9.66766 9.15014 9.85646 8.98891C9.96737 8.86464 10.0427 8.71525 10.0752 8.55516C10.1077 8.39507 10.0963 8.22971 10.042 8.07506C9.88864 7.44052 9.76995 6.79884 9.68641 6.1526C9.66896 5.99194 9.5852 5.84445 9.45353 5.74255C9.32186 5.64066 9.15307 5.5927 8.98426 5.60921C8.97301 5.61037 8.9618 5.6118 8.95064 5.61352H6.22413C6.11164 5.62328 6.00635 5.67045 5.92678 5.74675C5.8472 5.82306 5.79842 5.92361 5.789 6.03075C5.61314 8.37352 6.98577 10.88 7.26443 11.3618V11.3803L7.30323 11.4498C8.29973 13.0951 9.73465 14.4611 11.4631 15.4098L11.6041 15.4861C12.2442 15.8092 14.7884 17.0277 17.1657 16.8597C17.2796 16.8522 17.3869 16.8065 17.4685 16.7306C17.5501 16.6547 17.6007 16.5537 17.6112 16.4455V13.8535C17.6243 13.7744 17.6208 13.6937 17.6011 13.6159C17.5814 13.538 17.5457 13.4647 17.4962 13.4C17.4466 13.3353 17.3842 13.2805 17.3124 13.2388C17.2406 13.1971 17.1609 13.1693 17.0778 13.1569C17.0666 13.1552 17.0554 13.1537 17.0442 13.1526Z" stroke="#34A853" stroke-linecap="round" stroke-linejoin="round"/>
</svg>
