<svg width="24" height="23" viewBox="0 0 24 23" fill="none" xmlns="http://www.w3.org/2000/svg">
<path fill-rule="evenodd" clip-rule="evenodd" d="M7 2.98956C6.27065 2.98956 5.57118 3.26722 5.05546 3.76146C4.53973 4.25569 4.25 4.92602 4.25 5.62498V14.25C4.25 14.9489 4.53973 15.6193 5.05546 16.1135C5.57118 16.6077 6.27065 16.8854 7 16.8854H21C21.7293 16.8854 22.4288 16.6077 22.9445 16.1135C23.4603 15.6193 23.75 14.9489 23.75 14.25V5.62498C23.75 4.92602 23.4603 4.25569 22.9445 3.76146C22.4288 3.26722 21.7293 2.98956 21 2.98956H7ZM18.5 8.73956C18.1685 8.73956 17.8505 8.86577 17.6161 9.09043C17.3817 9.31508 17.25 9.61977 17.25 9.93748C17.25 10.2552 17.3817 10.5599 17.6161 10.7845C17.8505 11.0092 18.1685 11.1354 18.5 11.1354C18.8315 11.1354 19.1495 11.0092 19.3839 10.7845C19.6183 10.5599 19.75 10.2552 19.75 9.93748C19.75 9.61977 19.6183 9.31508 19.3839 9.09043C19.1495 8.86577 18.8315 8.73956 18.5 8.73956Z" fill="#C1C9D9"/>
<path d="M16.485 2.9411C16.7811 2.86548 17.0913 2.85608 17.3918 2.9136C17.6923 2.97113 17.9749 3.09405 18.218 3.27288C18.461 3.45171 18.6579 3.68166 18.7935 3.94499C18.9291 4.20833 18.9998 4.49799 19 4.79164H9L16.485 2.9411Z" fill="#C1C9D9"/>
</svg>
