<svg width="40" height="32" viewBox="0 0 40 32" fill="none" xmlns="http://www.w3.org/2000/svg">
<path fill-rule="evenodd" clip-rule="evenodd" d="M36.5486 9.1502C36.4305 9.14288 36.301 9.14288 36.1677 9.14288H30.8857C26.56 9.14288 22.8572 12.3173 22.8572 16.4572C22.8572 20.5971 26.56 23.7715 30.8857 23.7715H36.1677C36.301 23.7715 36.4305 23.7715 36.5486 23.7641C38.3067 23.6617 39.861 22.3799 39.9924 20.5879C40 20.4709 40 20.3447 40 20.2277V12.6867C40 12.5696 40 12.4435 39.9924 12.3264C39.861 10.5344 38.3067 9.25443 36.5486 9.1502ZM30.421 18.4083C31.5334 18.4083 32.4362 17.5342 32.4362 16.4572C32.4362 15.3783 31.5334 14.5061 30.421 14.5061C29.3067 14.5061 28.4019 15.3801 28.4019 16.4572C28.4019 17.536 29.3067 18.4083 30.421 18.4083Z" fill="black"/>
<path opacity="0.5" d="M36.4571 9.14651C36.4571 6.98697 36.3733 4.67017 34.9371 3.01166C34.7967 2.84918 34.6487 2.69298 34.4933 2.54354C33.0667 1.17577 31.259 0.568686 29.0267 0.279772C26.8552 2.17983e-07 24.0838 0 20.5829 0H16.56C13.059 0 10.2857 2.17983e-07 8.11429 0.279772C5.88191 0.568686 4.07429 1.17577 2.64762 2.54354C1.22286 3.91314 0.590476 5.64846 0.289524 7.79154C-8.51495e-08 9.87611 0 12.5367 0 15.8976V16.1024C0 19.4633 2.27065e-07 22.1257 0.291429 24.2085C0.592381 26.3515 1.22476 28.0869 2.64952 29.4565C4.07619 30.8242 5.88381 31.4313 8.11619 31.7202C10.2876 32 13.059 32 16.56 32H20.5829C24.0838 32 26.8571 32 29.0267 31.7202C31.259 31.4313 33.0667 30.8242 34.4933 29.4565C34.8728 29.091 35.2089 28.6863 35.4952 28.2496C36.3524 26.933 36.4552 25.3202 36.4552 23.7696L36.1695 23.7714H30.8857C26.56 23.7714 22.8571 20.597 22.8571 16.4571C22.8571 12.3173 26.56 9.14286 30.8857 9.14286H36.1676C36.2667 9.14286 36.3657 9.14286 36.4571 9.14651Z" fill="black"/>
</svg>
